<svg id="Capa_1" enable-background="new 0 0 512 512" height="512" viewBox="0 0 512 512" width="512" xmlns="http://www.w3.org/2000/svg"><g><path d="m341.605 200.395-21.21 21.21 55.605 55.606 55.605-55.606-21.21-21.21-19.395 19.394v-98.789h-90v30h60v68.789z"/><path d="m110.395 371.605 21.21-21.21-55.605-55.606-55.605 55.606 21.21 21.21 19.395-19.394v98.789h90v-30h-60v-68.789z"/><circle cx="136" cy="136" r="15"/><path d="m41.704 239.623 23.165-6.623c6.903 5.002 15.233 9.413 23.136 12.872l6.276 25.128h83.438l6.277-25.128c7.905-3.461 15.234-7.874 22.139-12.876l23.161 6.627 41.704-72.246-16.549-16.009c.657-5.085 1.549-10.104 1.549-15.368s-.892-10.283-1.549-15.368l16.549-16.009-41.704-72.246-23.163 6.625c-6.905-5.002-14.235-9.415-22.137-12.874l-6.277-26.128h-83.438l-6.277 26.128c-7.902 3.458-16.23 7.869-23.135 12.872l-23.165-6.623-41.704 72.246 16.549 16.007c-.657 5.087-1.549 10.106-1.549 15.37s.892 10.283 1.549 15.368l-16.549 16.009zm94.296-148.623c24.814 0 45 20.186 45 45s-20.186 45-45 45-45-20.186-45-45 20.186-45 45-45z"/><circle cx="346" cy="406" r="15"/><path d="m181 512h331v-211h-331zm240-121h30v30h-30zm-75-30c24.814 0 45 20.186 45 45s-20.186 45-45 45-45-20.186-45-45 20.186-45 45-45zm-105 30h30v30h-30z"/></g></svg>