<?xml version="1.0"?>
<svg xmlns="http://www.w3.org/2000/svg" xmlns:xlink="http://www.w3.org/1999/xlink" xmlns:svgjs="http://svgjs.com/svgjs" version="1.1" width="512" height="512" x="0" y="0" viewBox="0 0 512 512" style="enable-background:new 0 0 512 512" xml:space="preserve" class=""><g><path xmlns="http://www.w3.org/2000/svg" d="m62.88 213.43c0-100.861 81.8-183.535 185.215-190.893q-7.419-.526-14.975-.537c-110.4 0-200.24 85.73-200.24 191.43 0 148.56 200.24 276.57 200.24 276.57s5.636-3.605 15-10.291c-46.52-33.209-185.24-142.624-185.24-266.279z" fill="#d4e1f4" data-original="#d4e1f4" style=""/><path xmlns="http://www.w3.org/2000/svg" d="m366 217.763a6 6 0 0 0 -6 6v6.295a6 6 0 0 0 12 0v-6.295a6 6 0 0 0 -6-6z" fill="#dd500a" data-original="#1ae5be" style="" class=""/><path xmlns="http://www.w3.org/2000/svg" d="m366 243.058a6 6 0 0 0 -6 6v37a6 6 0 0 0 12 0v-37a6 6 0 0 0 -6-6z" fill="#dd500a" data-original="#1ae5be" style="" class=""/><path xmlns="http://www.w3.org/2000/svg" d="m233.118 16c-113.718 0-206.236 88.566-206.236 197.428 0 34.942 10.792 71.569 32.076 108.863 16.868 29.556 40.345 59.619 69.777 89.355 49.952 50.463 100.645 83.085 101.152 83.409a6 6 0 0 0 6.463 0c.98-.626 98.7-63.679 157.692-151.468l-9.961-6.692c-51.573 76.751-133.726 134.314-150.965 145.912a665.84 665.84 0 0 1 -96.017-79.77c-28.655-28.973-51.459-58.177-67.781-86.8-20.2-35.421-30.436-70.01-30.436-102.807 0-102.247 87.134-185.43 194.236-185.43 81.708 0 155.191 49.346 182.851 122.792l11.23-4.23c-29.411-78.093-107.406-130.562-194.081-130.562z" fill="#000000" data-original="#0635c9" style="" class=""/><path xmlns="http://www.w3.org/2000/svg" d="m99 146.817a6.009 6.009 0 0 0 3.209 8.5h.011a6 6 0 0 0 7.346-2.808 140.192 140.192 0 0 1 246.534-1.172l10.519-5.775a152.2 152.2 0 0 0 -267.619 1.255z" fill="#000000" data-original="#0635c9" style="" class=""/><g xmlns="http://www.w3.org/2000/svg" fill="#1ae5be"><path d="m365.667 217.763a6 6 0 0 0 -6 6v6.295a6 6 0 0 0 12 0v-6.295a6 6 0 0 0 -6-6z" fill="#dd500a" data-original="#1ae5be" style="" class=""/><path d="m365.667 243.058a6 6 0 0 0 -6 6v37a6 6 0 0 0 12 0v-37a6 6 0 0 0 -6-6z" fill="#dd500a" data-original="#1ae5be" style="" class=""/><path d="m483.533 199.349-45.213-49.263a23.608 23.608 0 0 0 -17.352-7.627h-80.974a6 6 0 0 0 -6 6v82.521h-14.063v-100.8a36.041 36.041 0 0 0 -36-36h-116.241l-19 12h35.468v124.796h-46.566v-114.744l-12 12v102.744h-37.159v12h245.561v18.989h-238.633v12h238.633v37.147h-115.988a36.712 36.712 0 0 0 -72.438 0h-20.207v12h20.207a36.712 36.712 0 0 0 72.438 0h154.683a36.712 36.712 0 0 0 72.438 0h16.438a23.578 23.578 0 0 0 23.553-23.552v-96.16a5.971 5.971 0 0 0 -1.585-4.051zm-175.6-69.178v100.805h-50.341v-124.8h26.339a24.027 24.027 0 0 1 24 23.995zm-111.773-24h49.434v124.805h-49.436zm-14.373 235.658a24.717 24.717 0 1 1 24.713-24.717 24.745 24.745 0 0 1 -24.713 24.717zm247.696-183.629 35.984 39.2h-54.067v-42.945h9.576a11.577 11.577 0 0 1 8.507 3.745zm-39.149 39.2v-42.945h9.066v42.945zm-12-42.947v42.947h-32.34v-42.945zm30.573 187.374a24.717 24.717 0 1 1 24.718-24.717 24.745 24.745 0 0 1 -24.718 24.719zm52.658-30.717h-16.438a36.712 36.712 0 0 0 -72.438 0h-26.695v-101.71h127.124v12.4h-15.791a9.522 9.522 0 0 0 -9.511 9.511v19.472a9.521 9.521 0 0 0 9.511 9.51h15.791v39.267a11.565 11.565 0 0 1 -11.553 11.552zm11.553-77.31v14.5h-13.3v-14.5z" fill="#dd500a" data-original="#1ae5be" style="" class=""/></g><path xmlns="http://www.w3.org/2000/svg" d="m337.1 312.74a140.5 140.5 0 0 1 -103.982 46.16c-77.3 0-140.192-62.89-140.192-140.192a139.625 139.625 0 0 1 4.551-35.4 5.983 5.983 0 0 0 -4.056-7.284l-.091-.024a5.944 5.944 0 0 0 -7.448 4.15 151.731 151.731 0 0 0 -4.956 38.55c0 83.918 68.273 152.192 152.192 152.192a152.511 152.511 0 0 0 112.874-50.1z" fill="#000000" data-original="#0635c9" style="" class=""/></g></svg>
