<?xml version="1.0"?>
<svg xmlns="http://www.w3.org/2000/svg" xmlns:xlink="http://www.w3.org/1999/xlink" xmlns:svgjs="http://svgjs.com/svgjs" version="1.1" width="512" height="512" x="0" y="0" viewBox="0 0 512 512" style="enable-background:new 0 0 512 512" xml:space="preserve" class=""><g><path xmlns="http://www.w3.org/2000/svg" d="m69 280.93a214.276 214.276 0 0 1 5.68-47.61q1.059-4.6 2.3-9.148a237.837 237.837 0 0 1 20.07-50.672l.07-.05 51.72-59.93c11.42-8.92 28.48-20.36 41.6-26.85l49.16-14.756-3.57-5.144v-.02c-5.06.45-10.04 1.03-14.51 1.66l-.12-.04-60.96 18.3c-13.12 6.49-30.18 17.93-41.6 26.85l-51.72 59.93-.07.05a240.227 240.227 0 0 0 -22.37 59.82 214.276 214.276 0 0 0 -5.68 47.61c0 118.78 96.19 215.07 214.85 215.07 5.044 0 10.043-.188 15-.53-111.66-7.71-199.85-100.809-199.85-214.54z" fill="#d4e1f4" data-original="#d4e1f4" style="" class=""/><g xmlns="http://www.w3.org/2000/svg" fill="#1ae5be"><path d="m463.2 156.675a22.12 22.12 0 1 0 -22.12 22.124 22.147 22.147 0 0 0 22.12-22.124zm-22.121 10.125a10.124 10.124 0 1 1 10.12-10.124 10.133 10.133 0 0 1 -10.12 10.124z" fill="#dd500a" data-original="#1ae5be" style="" class=""/><path d="m183.979 28.238a26.062 26.062 0 1 0 26.05 26.062 26.086 26.086 0 0 0 -26.05-26.062zm0 40.124a14.062 14.062 0 1 1 14.05-14.062 14.072 14.072 0 0 1 -14.05 14.062z" fill="#dd500a" data-original="#1ae5be" style="" class=""/><path d="m258.647 257.876a26.062 26.062 0 1 0 -26.047-26.062 26.086 26.086 0 0 0 26.047 26.062zm0-40.124a14.062 14.062 0 1 1 -14.047 14.062 14.072 14.072 0 0 1 14.047-14.062z" fill="#dd500a" data-original="#1ae5be" style="" class=""/><path d="m86.643 161.778a26.062 26.062 0 1 0 -26.051-26.062 26.086 26.086 0 0 0 26.051 26.062zm0-40.124a14.062 14.062 0 1 1 -14.051 14.062 14.072 14.072 0 0 1 14.051-14.062z" fill="#dd500a" data-original="#1ae5be" style="" class=""/></g><path xmlns="http://www.w3.org/2000/svg" d="m253.853 502a220.961 220.961 0 0 0 220.854-221.067c0-25.668-6.816-64.722-15.518-88.909l-11.289 4.062c6.022 16.74 11.212 41.831 13.524 63.515l-8.657.871c-.422.043-.846.073-1.274.093l-3.981.181a25.278 25.278 0 0 0 -22.132 15.2l-1.018 2.321a24.129 24.129 0 0 1 -22.09 14.443h-16.945a10.185 10.185 0 0 1 -10.16-9.209l-.678-6.781a25.175 25.175 0 0 0 -11.45-18.745 12.029 12.029 0 0 1 -5.521-10.145v-6.791a15.663 15.663 0 0 1 5.283-11.729l28.944-25.592a26.216 26.216 0 0 0 7.7-27.163 26.735 26.735 0 0 0 -22.3-18.781l-2.923-.36a16.6 16.6 0 0 1 -10.482-5.559 10.451 10.451 0 0 1 -1.237-12.018l15.839-27.149a220.392 220.392 0 0 1 35.3 29.3l8.638-8.33c-20.343-21.093-46.55-39.237-75.788-52.47-30.812-13.945-62.846-21.316-92.637-21.316a253.051 253.051 0 0 0 -33.162 2.6l1.667 11.884c3.583-.5 7.188-.937 10.723-1.3l25.2 36.356a24 24 0 0 1 -.716 28.4l-7.118 9.243a16.329 16.329 0 0 1 -14.951 6.216l-8.074-1.032a29.255 29.255 0 0 0 -28.959 14.218 16.492 16.492 0 0 1 -16.31 8.017l-18.642-2.37a30.241 30.241 0 0 0 -29 13.121 26.905 26.905 0 0 0 -.454 29.47l12.315 19.465a25.084 25.084 0 0 0 21.206 11.616 24.777 24.777 0 0 0 11.736-2.945l12.68-6.8c7.064-3.788 19.148-3.315 26.388 1.033l6.178-10.287c-10.766-6.466-27.562-7.046-38.237-1.321l-12.68 6.8a13.049 13.049 0 0 1 -17.13-4.512l-12.315-19.465a14.908 14.908 0 0 1 .251-16.329 18.3 18.3 0 0 1 17.549-7.941l18.642 2.369a28.467 28.467 0 0 0 28.169-13.841 17.259 17.259 0 0 1 17.092-8.4l8.073 1.032a28.375 28.375 0 0 0 25.981-10.8l7.118-9.243a35.957 35.957 0 0 0 1.071-42.558l-21.176-30.542c2.427-.1 4.737-.16 6.883-.16 28.1 0 58.42 7 87.689 20.249a251.384 251.384 0 0 1 26.687 14.1l-16.118 27.627a22.473 22.473 0 0 0 2.6 25.911 28.583 28.583 0 0 0 18.048 9.572l2.923.36a14.725 14.725 0 0 1 12.282 10.347 14.183 14.183 0 0 1 -4.165 14.7l-28.944 25.592a27.671 27.671 0 0 0 -9.334 20.719v6.791a23.98 23.98 0 0 0 11.011 20.225 13.243 13.243 0 0 1 6.02 9.858l.677 6.78a22.147 22.147 0 0 0 22.1 20.017h16.941a36.132 36.132 0 0 0 33.08-21.623l1.018-2.321a13.35 13.35 0 0 1 11.688-8.029l3.975-.18q.97-.043 1.936-.141l8.451-.851c.188 3.3.289 6.439.289 9.372 0 115.272-93.692 209.059-208.854 209.059s-208.853-93.787-208.853-209.067a206.779 206.779 0 0 1 4.808-42.951l22.833-7.427a23.8 23.8 0 0 1 24.859 11.475 48.361 48.361 0 0 0 8.674 10.94l16.08 15.149a36.147 36.147 0 0 0 15.206 8.527l1.874.51a20.781 20.781 0 0 1 14.481 14.444l8.621 31.134a42.191 42.191 0 0 0 7.132 14.373l26.121 34.282a21.2 21.2 0 0 1 4.036 9.338l7.13 42.819a17.92 17.92 0 0 0 24.645 13.608 23.931 23.931 0 0 0 14.545-19.618 32.374 32.374 0 0 1 7.321-17.413l7.569-9.112a27.657 27.657 0 0 0 5.182-9.58l7.776-25.252a25.6 25.6 0 0 1 8.912-12.833l23.347-17.946a19.833 19.833 0 0 0 3.029-28.56l-15.4-18.138c-.708-.834-1.389-1.706-2.052-2.631l-6.838-9.383-9.7 7.068 6.809 9.344c.826 1.152 1.711 2.286 2.632 3.37l15.4 18.138a7.833 7.833 0 0 1 -1.195 11.278l-23.337 17.945a37.534 37.534 0 0 0 -13.069 18.817l-7.779 25.252a15.73 15.73 0 0 1 -2.944 5.444l-7.569 9.112a44.325 44.325 0 0 0 -10.026 23.844 11.94 11.94 0 0 1 -7.253 9.787 5.95 5.95 0 0 1 -8.168-4.518l-7.13-42.819a33.244 33.244 0 0 0 -6.328-14.64l-26.121-34.281a30.245 30.245 0 0 1 -5.112-10.3l-8.621-31.129a32.833 32.833 0 0 0 -22.891-22.815l-1.874-.511a24.078 24.078 0 0 1 -10.136-5.685l-16.079-15.154a36.332 36.332 0 0 1 -6.523-8.227 35.8 35.8 0 0 0 -37.894-17.162 5.926 5.926 0 0 0 -.693.18l-16.111 5.241a230.263 230.263 0 0 1 19.14-47.907l-10.547-5.724c-18.016 33.197-28.772 74.43-28.772 110.297a220.959 220.959 0 0 0 220.853 221.067z" fill="#000000" data-original="#0635c9" style="" class=""/><path xmlns="http://www.w3.org/2000/svg" d="m163.159 92.013-5.326-10.754c-14.041 6.953-31.557 18.839-42.688 27.534l7.387 9.457c10.306-8.05 27.415-19.695 40.627-26.237z" fill="#000000" data-original="#0635c9" style="" class=""/><path xmlns="http://www.w3.org/2000/svg" d="m478.92 155.2c-1.287-19.8-17.464-35.307-36.828-35.307s-35.54 15.509-36.827 35.3a38.743 38.743 0 0 0 7.708 25.241l24.314 32.512a6 6 0 0 0 9.61 0l24.31-32.506a37.951 37.951 0 0 0 7.713-25.24zm-17.32 18.044-19.509 26.087-19.464-26.031a26.684 26.684 0 0 1 -5.388-17.324c.77-11.84 10.277-24.086 24.853-24.086s24.084 12.246 24.854 24.1a25.962 25.962 0 0 1 -5.346 17.254z" fill="#dd500a" data-original="#1ae5be" style="" class=""/><path xmlns="http://www.w3.org/2000/svg" d="m185.239 10c-23.317 0-42.8 18.694-44.348 42.55a46.717 46.717 0 0 0 9.3 30.429l30.243 40.453a6 6 0 0 0 9.611 0l30.238-40.447a45.765 45.765 0 0 0 9.3-30.425c-1.548-23.866-21.028-42.56-44.344-42.56zm25.437 65.794-25.437 34.025-25.394-33.966a34.673 34.673 0 0 1 -6.98-22.515c1-15.4 13.385-31.338 32.374-31.338s31.371 15.934 32.374 31.354a33.788 33.788 0 0 1 -6.937 22.44z" fill="#dd500a" data-original="#1ae5be" style="" class=""/><path xmlns="http://www.w3.org/2000/svg" d="m224.859 260.493 30.241 40.453a6 6 0 0 0 9.611 0l30.24-40.446a45.764 45.764 0 0 0 9.3-30.425c-1.551-23.866-21.031-42.56-44.348-42.56s-42.8 18.694-44.347 42.55a46.717 46.717 0 0 0 9.303 30.428zm2.675-29.641c1-15.4 13.384-31.338 32.373-31.338s31.372 15.934 32.374 31.355a33.776 33.776 0 0 1 -6.937 22.439l-25.437 34.025-25.394-33.966a34.672 34.672 0 0 1 -6.979-22.515z" fill="#dd500a" data-original="#1ae5be" style="" class=""/><path xmlns="http://www.w3.org/2000/svg" d="m43.556 133.966a46.726 46.726 0 0 0 9.3 30.43l30.244 40.452a6 6 0 0 0 9.611 0l30.236-40.448a45.769 45.769 0 0 0 9.3-30.425c-1.547-23.864-21.027-42.559-44.347-42.559s-42.794 18.695-44.344 42.55zm44.344-30.55c18.989 0 31.372 15.934 32.374 31.355a33.776 33.776 0 0 1 -6.937 22.439l-25.437 34.025-25.391-33.966a34.672 34.672 0 0 1 -6.979-22.515c1.001-15.404 13.384-31.338 32.37-31.338z" fill="#dd500a" data-original="#1ae5be" style="" class=""/></g></svg>
