<?xml version="1.0"?>
<svg xmlns="http://www.w3.org/2000/svg" viewBox="0 0 512 512" width="512" height="512"><g id="solid"><rect x="176" y="216" width="32" height="72"/><path d="M200.627,406.124a160.163,160.163,0,0,0,110.743,0,377.593,377.593,0,0,0-110.743,0Z"/><path d="M444.234,387.227l-22.6-10.85a382.764,382.764,0,0,0-331.262,0l-22.6,10.85,23.083,34.625a398.732,398.732,0,0,1,330.3,0ZM226.423,365.983l-7.4,5.377,2.827,8.7a3,3,0,0,1-4.617,3.355l-7.4-5.377-7.4,5.377a3,3,0,0,1-4.617-3.355l2.827-8.7-7.4-5.377a3,3,0,0,1,1.764-5.427h9.147l2.826-8.7a3,3,0,0,1,5.707,0l2.826,8.7h9.148A3,3,0,0,1,226.423,365.983ZM272.59,360.2l-7.4,5.377,2.827,8.7a3,3,0,0,1-4.617,3.355l-7.4-5.377-7.4,5.377a3,3,0,0,1-4.617-3.355l2.827-8.7-7.4-5.377a3,3,0,0,1,1.763-5.427h9.147l2.827-8.7a3,3,0,0,1,5.706,0l2.827,8.7h9.147A3,3,0,0,1,272.59,360.2Zm46.168,5.784-7.4,5.377,2.827,8.7a3,3,0,0,1-4.617,3.355l-7.4-5.377-7.4,5.377a3,3,0,0,1-4.617-3.355l2.827-8.7-7.4-5.377a3,3,0,0,1,1.763-5.427h9.148l2.826-8.7a3,3,0,0,1,5.707,0l2.826,8.7h9.147A3,3,0,0,1,318.758,365.983Z"/><path d="M83.445,361.953q12.054-5.785,24.5-10.742A174.6,174.6,0,0,1,80,256c0-97.047,78.953-176,176-176s176,78.953,176,176a174.7,174.7,0,0,1-27.957,95.208q12.441,4.96,24.512,10.745l19.518,9.369a224,224,0,1,0-384.141,0Z"/><path d="M312,284a4,4,0,0,0-4-4,8,8,0,0,1,0-16h8a4,4,0,0,0,0-8,8,8,0,0,1,0-16h8a4,4,0,0,0,0-8,8,8,0,0,1,0-16h8a4,4,0,0,0,0-8H288a24.028,24.028,0,0,1-24-24V160a8.009,8.009,0,0,0-8-8h-8v9.633a61.6,61.6,0,0,1-18.159,43.841L224,211.313V288h84A4,4,0,0,0,312,284Z"/><path d="M256,432a176.24,176.24,0,0,1-83-20.783,386.228,386.228,0,0,0-50.083,14.741l11.736,17.6a8.057,8.057,0,0,1,.626,1.149,224.122,224.122,0,0,0,241.437,0,7.942,7.942,0,0,1,.625-1.148l11.736-17.6A385.992,385.992,0,0,0,339,411.218,176.253,176.253,0,0,1,256,432Z"/><path d="M91.439,439.223a8,8,0,0,1-10.095-2.785L67.29,415.356,45.86,428.214l19.709,3.941a8,8,0,0,1,6.419,8.278l-1.782,32.948,46.485-27.921-9-13.5Q99.48,435.406,91.439,439.223Z"/><path d="M430.656,436.438a8,8,0,0,1-10.1,2.785q-8.032-3.825-16.253-7.263l-9,13.5,46.485,27.921-1.782-32.948a8,8,0,0,1,6.419-8.278l19.709-3.941-21.43-12.858Z"/><path d="M388.675,345.446A158.815,158.815,0,0,0,416,256c0-88.225-71.775-160-160-160S96,167.775,96,256a158.725,158.725,0,0,0,27.32,89.448,398.063,398.063,0,0,1,265.355,0ZM160,296V208a8,8,0,0,1,8-8h44.686l5.84-5.841A45.692,45.692,0,0,0,232,161.633V144a8,8,0,0,1,8-8h16a24.028,24.028,0,0,1,24,24v24a8.009,8.009,0,0,0,8,8h44A20,20,0,0,1,342.7,228.894a19.991,19.991,0,0,1-8,24,19.991,19.991,0,0,1-8,24A20,20,0,0,1,308,304H168A8,8,0,0,1,160,296Z"/></g></svg>
