<svg id="Capa_1" enable-background="new 0 0 512 512" height="512" viewBox="0 0 512 512" width="512" xmlns="http://www.w3.org/2000/svg"><g><path d="m256 16h-256v240h226l30 30 30-30h226v-240z" fill="#f0f7ff"/><path d="m512 256v-240h-256v270l30-30z" fill="#dfe7f4"/><path d="m151 496h-151v-150h181v115.579z" fill="#26bfa6"/><path d="m331 376h181v120h-151l-30-25.895z" fill="#f37"/><path d="m151 286h210v210h-210z" fill="#ffe666"/><g fill="#fabe2c"><path d="m256 286h105v210h-105z"/><path d="m241 346h30v90h-30z"/><path d="m165.441 103.202-37.441 12.155v-39.357h-30v39.357l-37.441-12.155-9.258 28.535 37.428 12.151-23.131 31.824 24.257 17.637 23.145-31.841 23.145 31.841 24.257-17.637-23.131-31.824 37.428-12.151z"/></g><path d="m460.699 131.737-9.258-28.535-37.441 12.155v-39.357h-30v39.357l-37.441-12.155-9.258 28.535 37.428 12.151-23.131 31.824 24.257 17.637 23.145-31.841 23.145 31.841 24.257-17.637-23.131-31.824z" fill="#ff9100"/><path d="m317.699 131.737-9.258-28.535-37.441 12.155v-39.357h-15-15v39.357l-37.441-12.155-9.258 28.535 37.428 12.151-23.131 31.824 24.257 17.637 23.145-31.841 23.145 31.841 24.257-17.637-23.131-31.824z" fill="#fabe2c"/><path d="m303.402 175.712-23.131-31.824 37.428-12.151-9.258-28.535-37.441 12.155v-39.357h-15v85.508l23.145 31.841z" fill="#ff9100"/><path d="m256 346h15v90h-15z" fill="#ff9100"/></g></svg>