<?xml version="1.0"?>
<svg xmlns="http://www.w3.org/2000/svg" xmlns:xlink="http://www.w3.org/1999/xlink" xmlns:svgjs="http://svgjs.com/svgjs" version="1.1" width="512" height="512" x="0" y="0" viewBox="0 0 512 512.92258" style="enable-background:new 0 0 512 512" xml:space="preserve" class=""><g><path xmlns="http://www.w3.org/2000/svg" d="m433.347656 512.921875h-352.898437c-27.71875-.003906-53.460938-14.355469-68.039063-37.9375-14.574218-23.578125-15.902344-53.023437-3.511718-77.820313l176.433593-352.914062c13.542969-27.117188 41.253907-44.25 71.566407-44.25s58.023437 17.132812 71.566406 44.25l176.433594 352.914062c12.390624 24.796876 11.0625 54.242188-3.511719 77.820313-14.574219 23.582031-40.320313 37.933594-68.039063 37.9375zm0 0" fill="#000000" data-original="#ff7761" style="" class=""/><g xmlns="http://www.w3.org/2000/svg" fill="#fff"><path d="m256.898438 128.203125c8.835937 0 16 7.164063 16 16v192c0 8.835937-7.164063 16-16 16-8.835938 0-16-7.164063-16-16v-192c0-8.835937 7.164062-16 16-16zm0 0" fill="#dd500a" data-original="#ffffff" style="" class=""/><path d="m240.898438 384.203125h32v32h-32zm0 0" fill="#dd500a" data-original="#ffffff" style="" class=""/></g></g></svg>
